<svg id="Layer_1" enable-background="new 0 0 512 512" height="512" viewBox="0 0 512 512" width="512" xmlns="http://www.w3.org/2000/svg"><g><path d="m208 266v-260h256v260" fill="#b9c2cf"/><path d="m208 250h256v16h-256z" fill="#95a4b6"/><path d="m432 506h-400v-320h112v32h288z" fill="#95a4b6"/><path d="m32 490h448v16h-448z" fill="#72869e"/><path d="m432 118v148h-256v-228h176z" fill="#fff"/><path d="m352 118h80v16h-80z" fill="#dce1e7"/><path d="m176 250h256v16h-256z" fill="#dce1e7"/><g><path d="m208 150h112v80h-112z" fill="#dce1e7"/><path d="m304 150h16v80h-16z" fill="#b9c2cf"/><path d="m208 150h112v32h-112z" fill="#95a4b6"/><path d="m304 150h16v32h-16z" fill="#72869e"/></g><path d="m80 266h400v240h-400z" fill="#dce1e7"/><path d="m80 490h400v16h-400z" fill="#b9c2cf"/><path d="m368 442h80v32h-80z" fill="#fff"/><path d="m432 118h-80v-80" fill="#95a4b6"/><g fill="#012d4a"><path d="m326 144h-16v-50c0-7.72-6.28-14-14-14h-64c-7.72 0-14 6.28-14 14v50h-16v92h124zm-96-50c0-1.103.897-2 2-2h64c1.103 0 2 .897 2 2v50h-68zm84 62v20h-100v-20zm-100 68v-36h100v36z"/><path d="m470 260v-260h-268v32h-32v180h-20v-32h-124v332h460v-252zm-256-248h244v248h-20v-144.485l-83.515-83.515h-140.485zm144 40.485 59.515 59.515h-59.515zm-12-8.485v80h80v136h-244v-216zm-272 456h-36v-308h100v20h-74v12h106v36h-96zm400 0h-388v-228h388z"/><path d="m454 436h-92v44h92zm-12 32h-68v-20h68z"/></g></g></svg>