<svg height="512" viewBox="0 0 64 64" width="512" xmlns="http://www.w3.org/2000/svg"><path d="m39.41 15.59a1.955 1.955 0 0 1 .59 1.41 2.006 2.006 0 0 1 -2 2h-12a2.015 2.015 0 0 1 -2-2 2.006 2.006 0 0 1 2-2h12a1.955 1.955 0 0 1 1.41.59z" fill="#bddbff"/><path d="m44 5-6 10h-12l-6-10c3 0 3-2 6-2s3 2 6 2 3-2 6-2 3 2 6 2z" fill="#bddbff"/><path d="m60.38 55.42a3.507 3.507 0 0 1 .62 2 3.576 3.576 0 0 1 -3.58 3.58h-50.84a3.578 3.578 0 0 1 -1.33-6.9l.24-.09a4.015 4.015 0 0 0 2.51-3.72v-15.29a16 16 0 0 1 16-16h16a16 16 0 0 1 16 16v15.29a4.015 4.015 0 0 0 2.51 3.72l.24.09a3.542 3.542 0 0 1 1.63 1.32zm-15.38-6.42v-24a1 1 0 0 0 -1-1h-18a1 1 0 0 0 -1 1v2h-2a1 1 0 0 0 -1 1v2h-2a1 1 0 0 0 -1 1v24a1 1 0 0 0 1 1h18a1 1 0 0 0 1-1v-2h2a1 1 0 0 0 1-1v-2h2a1 1 0 0 0 1-1z" fill="#bddbff"/><g fill="#3d9ae2"><path d="m59.123 53.172-.237-.095a2.984 2.984 0 0 1 -1.886-2.785v-15.292a17.006 17.006 0 0 0 -16.2-16.959 2.943 2.943 0 0 0 -1.291-3.617l5.345-8.909a1 1 0 0 0 -.854-1.515 3.779 3.779 0 0 1 -2.445-.833 6 6 0 0 0 -7.11 0 4.009 4.009 0 0 1 -4.89 0 5.994 5.994 0 0 0 -7.11 0 3.778 3.778 0 0 1 -2.445.833 1 1 0 0 0 -.857 1.515l5.345 8.909a2.943 2.943 0 0 0 -1.288 3.617 17.006 17.006 0 0 0 -16.2 16.959v15.292a2.986 2.986 0 0 1 -1.887 2.786l-.235.094a4.578 4.578 0 0 0 1.7 8.828h50.844a4.578 4.578 0 0 0 1.7-8.828zm-34.123-36.172a1 1 0 0 1 1-1h12a1 1 0 0 1 0 2h-12a1 1 0 0 1 -1-1zm-1.445-12.168a4.009 4.009 0 0 1 4.89 0 5.739 5.739 0 0 0 3.555 1.168 5.744 5.744 0 0 0 3.555-1.168 4.007 4.007 0 0 1 4.89 0 6.45 6.45 0 0 0 1.916.955l-4.927 8.213h-10.868l-4.927-8.211a6.425 6.425 0 0 0 1.916-.957zm33.867 55.168h-50.844a2.578 2.578 0 0 1 -.957-4.971l.235-.094a4.976 4.976 0 0 0 3.144-4.643v-15.292a15.017 15.017 0 0 1 15-15h16a15.017 15.017 0 0 1 15 15v15.292a4.975 4.975 0 0 0 3.143 4.642l.237.1a2.578 2.578 0 0 1 -.958 4.966z"/><path d="m30 35h6v2h-6z"/><path d="m32 39h4v2h-4z"/><path d="m22 39h8v2h-8z"/><path d="m32 43h4v2h-4z"/><path d="m22 43h8v2h-8z"/><path d="m32 47h4v2h-4z"/><path d="m22 47h8v2h-8z"/><path d="m32 51h4v2h-4z"/><path d="m24 51h6v2h-6z"/><path d="m44 23h-18a2 2 0 0 0 -2 2v1h-1a2 2 0 0 0 -2 2v1h-1a2 2 0 0 0 -2 2v24a2 2 0 0 0 2 2h18a2 2 0 0 0 2-2v-1h1a2 2 0 0 0 2-2v-1h1a2 2 0 0 0 2-2v-24a2 2 0 0 0 -2-2zm-6 32h-18v-24h2v2h2v-2h2v2h2v-2h2v2h2v-2h2v2h2v-2h2zm3-3h-1v-21a2 2 0 0 0 -2-2h-15v-1h18zm3-3h-1v-21a2 2 0 0 0 -2-2h-15v-1h18z"/></g></svg>