<svg height="512" viewBox="0 0 64 64" width="512" xmlns="http://www.w3.org/2000/svg"><path d="m24 6h10a1 1 0 0 0 1-1v-1h-12v1a1 1 0 0 0 1 1z"/><path d="m45 56h-14a2 2 0 0 1 -2-2v-39a1 1 0 0 1 1.895-.447l1.105 2.211 1.1-2.211a1.042 1.042 0 0 1 1.79 0l1.11 2.211 1.1-2.211a1.042 1.042 0 0 1 1.79 0l1.11 2.216 1.115-2.218a1 1 0 0 1 .897-.551 1 1 0 0 1 .893.555l1.1 2.2 1-2v-7.755a3 3 0 0 0 -3-3h-5.005v1a3 3 0 0 1 -3 3h-10a3 3 0 0 1 -3-3v-1h-5a3 3 0 0 0 -3 3v50a3 3 0 0 0 3 3h26a3 3 0 0 0 3-3z"/><path d="m53 19.236-.1.211a1.042 1.042 0 0 1 -1.79 0l-1.11-2.211-1.1 2.211a1.042 1.042 0 0 1 -1.79 0l-1.11-2.211-1.1 2.211a1 1 0 0 1 -.9.553 1 1 0 0 1 -.9-.555l-1.1-2.209-1.113 2.213a1 1 0 0 1 -.887.551 1 1 0 0 1 -.894-.553l-1.106-2.211-1.1 2.211a1.042 1.042 0 0 1 -1.79 0l-1.11-2.211-1.1 2.211a1.042 1.042 0 0 1 -1.79 0l-.11-.211v34.764h22zm-8 30.764h-6v-2h6zm0-4h-10v-2h10zm0-4h-10v-2h10zm0-4h-10v-2h10zm0-4h-10v-2h10zm0-4h-10v-2h10zm0-4h-10v-2h10zm4 24h-2v-2h2zm0-4h-2v-2h2zm0-4h-2v-2h2zm0-4h-2v-2h2zm0-4h-2v-2h2zm0-4h-2v-2h2zm0-4h-2v-2h2z"/></svg>